<svg xmlns="http://www.w3.org/2000/svg" width="74" height="66" fill="none" xmlns:v="https://vecta.io/nano"><mask id="A" fill="#fff"><path fill-rule="evenodd" d="M5.887 34.142l2.828 2.828L37 65.255l28.284-28.284 2.828-2.828c7.81-7.81 7.81-20.474 0-28.284s-20.474-7.81-28.284 0L37 8.686l-2.828-2.828c-7.81-7.81-20.474-7.81-28.284 0s-7.81 20.474 0 28.284z"/></mask><g fill="#f056c7"><path fill-rule="evenodd" d="M5.887 34.142l2.828 2.828L37 65.255l28.284-28.284 2.828-2.828c7.81-7.81 7.81-20.474 0-28.284s-20.474-7.81-28.284 0L37 8.686l-2.828-2.828c-7.81-7.81-20.474-7.81-28.284 0s-7.81 20.474 0 28.284z"/><path d="M37 65.255l-2.828 2.828L37 70.912l2.828-2.828L37 65.255zm28.284-28.284l2.828 2.828h0l-2.828-2.828zm2.828-2.828l-2.828-2.828h0l2.829 2.828zM37 8.686l-2.828 2.828L37 14.343l2.828-2.828L37 8.686zM11.544 34.142l-2.828-2.828-5.657 5.657 2.828 2.828 5.657-5.657zm28.284 28.284L11.544 34.142l-5.657 5.657 28.284 28.284 5.657-5.657zm22.627-28.284L34.172 62.426l5.657 5.657 28.284-28.284-5.657-5.657zm2.828-2.829l-2.828 2.829 5.657 5.657 2.828-2.828-5.657-5.657zm0-22.627c6.248 6.248 6.248 16.379 0 22.627l5.657 5.657c9.373-9.373 9.373-24.569 0-33.941l-5.657 5.657zm-22.628 0c6.248-6.248 16.379-6.248 22.628 0l5.657-5.657c-9.373-9.373-24.569-9.373-33.941 0l5.657 5.657zm-2.828 2.828l2.828-2.828L37 3.029l-2.828 2.828 5.657 5.657zm-8.485-2.828l2.828 2.828 5.657-5.657L37 3.029l-5.657 5.657zm-22.627 0c6.248-6.248 16.379-6.248 22.627 0L37 3.029c-9.373-9.373-24.568-9.373-33.941 0l5.657 5.657zm0 22.627c-6.248-6.248-6.248-16.379 0-22.627L3.059 3.029c-9.373 9.373-9.373 24.569 0 33.941l5.657-5.657z" mask="url(#A)"/></g></svg>